<svg width="800" height="800" viewBox="144 144 512 512" xmlns="http://www.w3.org/2000/svg"><defs><clipPath id="a"><path d="m148.09 187H651.9v416H148.09z"/></clipPath></defs><g clip-path="url(#a)"><path d="m594.59 244.77c-34.43-34.43-90.254-34.43-124.68.0l-58.777 58.777c-2.9531 2.9531-6.957 4.6133-11.133 4.6133s-8.1836-1.6602-11.133-4.6133l-58.781-58.777c-34.43-34.43-90.25-34.43-124.68.0-34.434 34.43-34.434 90.25.0 124.68l194.59 194.59 194.59-194.59c34.434-34.43 34.434-90.25.003906-124.68zm-146.95-22.266c46.727-46.727 122.49-46.727 169.21.0s46.727 122.48.0 169.21l-205.73 205.73c-2.9531 2.9492-6.957 4.6094-11.133 4.6094s-8.1836-1.6602-11.133-4.6094l-205.73-205.73c-46.73-46.727-46.73-122.48.0-169.21 46.727-46.727 122.48-46.727 169.21.0l47.648 47.645z" fill-rule="evenodd"/></g></svg>