<svg fill="#000" width="800" height="800" viewBox="144 144 512 512" xmlns="http://www.w3.org/2000/svg"><g><path d="m424.04 237.31c-42.719.0-78.09 32.117-83.234 73.473h-77.145l-21.516-52.48h-59.516v20.992h45.449l12.91 31.488h-.52734l79.77 193.65 2.3086 5.7734h25.715c-5.0391 5.5625-8.1875 12.91-8.1875 20.992.0 17.32 14.168 31.488 31.488 31.488s31.488-14.168 31.488-31.488c0-8.082-3.1484-15.43-8.1875-20.992h79.352c-5.0391 5.5625-8.1875 12.91-8.1875 20.992.0 17.32 14.168 31.488 31.488 31.488s31.488-14.168 31.488-31.488c0-8.082-3.1484-15.43-8.1875-20.992h26.137l70.43-199.43h-110.1c-5.1445-41.352-40.516-73.473-83.234-73.473zm0 20.992c34.742.0 62.977 28.234 62.977 62.977.0 34.742-28.234 62.977-62.977 62.977-34.742.0-62.977-28.234-62.977-62.977.0-34.742 28.234-62.977 62.977-62.977zm-52.48 283.39c-5.7734.0-10.496-4.7227-10.496-10.496.0-5.7734 4.7227-10.496 10.496-10.496 5.7734.0 10.496 4.7227 10.496 10.496.0 5.7734-4.7227 10.496-10.496 10.496zm125.95.0c-5.7734.0-10.496-4.7227-10.496-10.496.0-5.7734 4.7227-10.496 10.496-10.496 5.7734.0 10.496 4.7227 10.496 10.496.0 5.7734-4.7227 10.496-10.496 10.496zm34.637-52.48h-195.54l-64.445-157.44h68.645c5.1445 41.355 40.516 73.473 83.234 73.473s78.09-32.117 83.234-73.473h80.398z"/><path d="m425.61 354.97 29.809-23.617c12.91-12.91 5.3516-38.941-22.777-36.633l-7.0312 7.0312-7.0312-7.0312c-28.129-2.3086-35.688 23.617-22.777 36.633z"/></g></svg>